<svg id="Capa_1" enable-background="new 0 0 512 512" height="512" viewBox="0 0 512 512" width="512" xmlns="http://www.w3.org/2000/svg"><g><path d="m421.5 0h-331c-24.813 0-45 20.187-45 45v422c0 24.813 20.187 45 45 45h331c24.813 0 45-20.187 45-45v-422c0-24.813-20.187-45-45-45zm-331 30h331c8.271 0 15 6.729 15 15v76h-361v-76c0-8.271 6.729-15 15-15zm331 452h-331c-8.271 0-15-6.729-15-15v-316h361v316c0 8.271-6.729 15-15 15z"/><path d="m256.5 181c-66.168 0-120 53.832-120 120s53.832 120 120 120 120-53.832 120-120-53.832-120-120-120zm0 30c44.417 0 81.417 32.345 88.696 74.717-.002.095-.014.188-.014.283 0 19.367-24.87 27.975-35.627 10.568-8.528-13.798-28.446-13.776-36.957-.002-7.762 12.555-24.395 12.597-32.18.001-8.527-13.798-28.446-13.773-36.956-.001-10.747 17.382-35.644 8.832-35.644-10.565 0-.096-.013-.188-.014-.283 7.279-42.373 44.279-74.718 88.696-74.718zm0 180c-38.083 0-70.715-23.778-83.836-57.266 17.227 5.413 36.128 1.016 49.276-12.392 19.148 19.528 49.992 19.518 69.135 0 13.169 13.433 32.069 17.794 49.262 12.392-13.122 33.488-45.754 57.266-83.837 57.266z"/><circle cx="391.5" cy="76" r="15"/><circle cx="331.5" cy="76" r="15"/><circle cx="271.5" cy="76" r="15"/><path d="m121.5 91h44.5c8.284 0 15-6.716 15-15s-6.716-15-15-15h-44.5c-8.284 0-15 6.716-15 15s6.716 15 15 15z"/><path d="m391 421h-30c-8.284 0-15 6.716-15 15s6.716 15 15 15h30c8.284 0 15-6.716 15-15s-6.716-15-15-15z"/></g></svg>