<svg id="Capa_1" enable-background="new 0 0 512 512" height="512" viewBox="0 0 512 512" width="512" xmlns="http://www.w3.org/2000/svg"><g><path d="m429.924 342.439c-12.274 0-22.333 9.41-22.898 21.421-.293 6.217 1.907 12.115 6.193 16.608 4.226 4.43 10.16 6.971 16.281 6.971 27.222 0 49.666-20.827 52.247-47.383 18.283-8.56 30.253-27.068 30.253-47.556v-255c0-20.678-16.822-37.5-37.5-37.5-4.142 0-7.5 3.358-7.5 7.5v52.5h-15v-52.5c0-4.142-3.358-7.5-7.5-7.5-20.678 0-37.5 16.822-37.5 37.5v120c0 12.407-10.093 22.5-22.5 22.5h-44.865c-57.974 0-108.7 39.174-123.357 95.264l-39.855 152.509c-6.036 23.097-26.923 39.227-50.795 39.227h-103.128c-12.407 0-22.5 10.093-22.5 22.5s10.093 22.5 22.5 22.5h117.104c18.177 0 35.95-5.064 51.396-14.646s27.879-23.254 35.954-39.539l25.198-50.815h25.348c4.142 0 7.5-3.358 7.5-7.5s-3.358-7.5-7.5-7.5h-30c-2.85 0-5.453 1.615-6.719 4.168l-27.264 54.982c-14.024 28.282-42.346 45.85-73.913 45.85h-117.104c-4.136 0-7.5-3.364-7.5-7.5s3.364-7.5 7.5-7.5h103.128c30.692 0 57.547-20.739 65.307-50.434l39.855-152.51c12.933-49.491 57.691-84.056 108.845-84.056h44.865c20.678 0 37.5-16.822 37.5-37.5v-13.23l9.083 18.167c5.417 10.834 16.305 17.563 28.417 17.563s23-6.729 28.416-17.563l9.084-18.167v94.019c0 18.705-10.058 36.127-26.249 45.469-2.321 1.339-3.751 3.816-3.751 6.496v44.685c0 20.678-16.822 37.5-37.5 37.5-2.07 0-3.998-.826-5.428-2.325-1.428-1.497-2.161-3.467-2.063-5.548.185-3.93 3.736-7.127 7.915-7.127 12.173 0 22.076-9.903 22.076-22.077v-33.757c0-2.415-1.163-4.683-3.125-6.092s-4.483-1.787-6.771-1.016l-41.581 14.013c-11.724 3.951-20.487 13.292-23.926 24.71-16.956-28.827-48.302-48.22-84.097-48.22h-41.967c-4.142 0-7.5 3.358-7.5 7.5s3.358 7.5 7.5 7.5h41.967c45.491 0 82.5 37.009 82.5 82.5v92c0 4.142 3.358 7.5 7.5 7.5h92c9.778 0 18.12 6.27 21.215 15h-128.215c-12.407 0-22.5-10.093-22.5-22.5v-75c0-4.142-3.358-7.5-7.5-7.5h-30c-4.142 0-7.5 3.358-7.5 7.5v75c0 20.678 16.822 37.5 37.5 37.5h167c4.142 0 7.5-3.358 7.5-7.5 0-20.678-16.822-37.5-37.5-37.5h-84.5v-122.953c0-9.667 6.154-18.235 15.314-21.322l31.686-10.678v23.315c0 3.902-3.174 7.077-7.076 7.077zm61.534-220.624-16.958 33.914c-2.858 5.718-8.606 9.271-15 9.271s-12.141-3.552-15-9.271l-16.958-33.915c-3.626-7.251-5.542-15.37-5.542-23.479v-60.835c0-9.778 6.27-18.12 15-21.215v51.215c0 4.142 3.358 7.5 7.5 7.5h30c4.142 0 7.5-3.358 7.5-7.5v-51.215c8.73 3.095 15 11.437 15 21.215v60.836c0 8.107-1.917 16.227-5.542 23.479zm-9.458 172.602c5.725-3.827 10.763-8.479 15-13.738v11.82c0 11.994-5.741 23.039-15 30.001zm-167 180.083v-67.5h15v67.5c0 8.435 2.8 16.229 7.5 22.5-12.407 0-22.5-10.093-22.5-22.5z"/></g></svg>